<svg width="64" height="65" viewBox="0 0 64 65" fill="none" xmlns="http://www.w3.org/2000/svg">
<g clip-path="url(#clip0_182_181)">
<path opacity="0.7" d="M9.87646 55.7358H54.1237V56.8995H9.87646V55.7358Z" fill="url(#paint0_linear_182_181)"/>
<path d="M48.3783 52.9429H51.4328V56.5211H48.3783V52.9429ZM12.4946 52.9429H15.6364V56.5211H12.4946V52.9429Z" fill="#3C549E"/>
<path d="M11.1564 7.64844H52.8436C52.9774 7.64844 53.1097 7.67477 53.2333 7.72594C53.3568 7.77711 53.4691 7.85211 53.5636 7.94666C53.6581 8.0412 53.7331 8.15345 53.7843 8.27698C53.8355 8.40051 53.8618 8.53291 53.8618 8.66662V52.8848C53.8618 53.0185 53.8355 53.1509 53.7843 53.2744C53.7331 53.398 53.6581 53.5102 53.5636 53.6048C53.4691 53.6993 53.3568 53.7743 53.2333 53.8255C53.1097 53.8766 52.9774 53.903 52.8436 53.903H11.1564C11.0227 53.903 10.8903 53.8766 10.7667 53.8255C10.6432 53.7743 10.5309 53.6993 10.4364 53.6048C10.3419 53.5102 10.2669 53.398 10.2157 53.2744C10.1645 53.1509 10.1382 53.0185 10.1382 52.8848V8.66662C10.1382 8.39658 10.2455 8.1376 10.4364 7.94666C10.6273 7.75571 10.8863 7.64844 11.1564 7.64844Z" fill="#77D9F7"/>
<path d="M13.6294 10.1792H50.3858V22.1065H13.6294V10.1792ZM13.6294 24.7247H50.3858V36.6519H13.6294V24.7247ZM13.6294 39.1828H50.3858V51.1101H13.6294V39.1828Z" fill="#A7E2F9"/>
<path d="M36.6981 14.3687V15.7505H27.3017V14.3687H25.2944V18.1941H38.7053V14.3687H36.6981ZM36.6981 28.6377V30.0341H27.3017V28.6377H25.2944V32.3905H38.7053V28.6377H36.6981ZM36.6981 42.8487V44.2305H27.3017V42.8487H25.2944V46.6741H38.7053V42.8487H36.6981Z" fill="#485FC4"/>
</g>
<defs>
<linearGradient id="paint0_linear_182_181" x1="9.87646" y1="56.3177" x2="54.1237" y2="56.3177" gradientUnits="userSpaceOnUse">
<stop stop-opacity="0"/>
<stop offset="0.07" stop-opacity="0.16"/>
<stop offset="0.5" stop-opacity="0.3"/>
<stop offset="0.93" stop-opacity="0.16"/>
<stop offset="1" stop-opacity="0"/>
</linearGradient>
<clipPath id="clip0_182_181">
<rect width="64" height="64" fill="white" transform="translate(0 0.171875)"/>
</clipPath>
</defs>
</svg>
