<svg width="200" height="200" viewBox="0 0 200 200" fill="none" xmlns="http://www.w3.org/2000/svg">
<path d="M42.936 132.605V96.0547L59.1719 105.156V124.414L91.8435 143.28V105.55L84.5481 101.416L84.5534 101.342L25.3414 67.9716L19 64.3134V148.77L92.1457 191V161.019L42.936 132.605ZM157.618 78.1315V132.605L125.051 151.411V133.338L141.384 123.906V87.0379L108.713 105.043V160.843L108.408 161.019V191L181.548 148.77V64.3134L157.618 78.1315ZM151.521 62.8706L173.417 50.2271L100.277 8L27.1337 50.2271L49.0356 62.8706L100.277 33.2869L135.237 53.4701L116.678 63.9612L100.277 54.4872L67.6052 73.3538L69.5579 74.4733L100.277 92.2099L126.428 77.1145L151.458 62.8364L151.521 62.8706Z" fill="#1B75BB"/>
</svg>
