<svg width="64" height="65" viewBox="0 0 64 65" fill="none" xmlns="http://www.w3.org/2000/svg">
<g clip-path="url(#clip0_182_228)">
<path opacity="0.1" d="M32 61.6314C36.5685 61.6314 40.272 61.4488 40.272 61.2234C40.272 60.9981 36.5685 60.8154 32 60.8154C27.4315 60.8154 23.728 60.9981 23.728 61.2234C23.728 61.4488 27.4315 61.6314 32 61.6314Z" fill="black"/>
<path d="M30.7282 36.1436H33.2722V61.1596C33.2722 61.2041 33.2545 61.2468 33.223 61.2783C33.1915 61.3099 33.1488 61.3276 33.1042 61.3276H30.8882C30.8437 61.3276 30.8009 61.3099 30.7694 61.2783C30.7379 61.2468 30.7202 61.2041 30.7202 61.1596V36.1436H30.7282Z" fill="#3C549E"/>
<path d="M32.0002 35.6552C29.1882 35.6552 26.4393 34.8212 24.1014 33.2588C21.7634 31.6963 19.9413 29.4756 18.8655 26.8775C17.7898 24.2794 17.5088 21.4207 18.0579 18.6628C18.6071 15.905 19.9618 13.3719 21.9508 11.3841C23.9397 9.39627 26.4735 8.04296 29.2317 7.49533C31.9898 6.94771 34.8485 7.23037 37.446 8.30758C40.0435 9.38478 42.2631 11.2081 43.8242 13.547C45.3854 15.8858 46.2178 18.6352 46.2162 21.4472C46.2098 25.2148 44.7098 28.8262 42.0449 31.4895C39.38 34.1529 35.7678 35.6509 32.0002 35.6552Z" fill="#445DCB"/>
<path d="M32.0001 8.87131C34.4873 8.87131 36.9188 9.60888 38.9869 10.9907C41.055 12.3726 42.6669 14.3367 43.6188 16.6347C44.5706 18.9326 44.8197 21.4613 44.3344 23.9008C43.8492 26.3403 42.6514 28.5811 40.8926 30.3399C39.1338 32.0987 36.893 33.2964 34.4535 33.7817C32.014 34.2669 29.4854 34.0179 27.1874 33.066C24.8895 32.1142 22.9254 30.5023 21.5435 28.4342C20.1616 26.366 19.4241 23.9346 19.4241 21.4473C19.4283 18.1132 20.7546 14.917 23.1122 12.5594C25.4697 10.2019 28.666 8.87554 32.0001 8.87131ZM32.0001 5.59131C28.864 5.59131 25.7984 6.52125 23.1909 8.26353C20.5834 10.0058 18.5511 12.4822 17.351 15.3795C16.1509 18.2768 15.8369 21.4649 16.4487 24.5407C17.0605 27.6164 18.5707 30.4417 20.7882 32.6592C23.0057 34.8767 25.8309 36.3868 28.9067 36.9986C31.9825 37.6104 35.1706 37.2964 38.0679 36.0963C40.9652 34.8962 43.4416 32.8639 45.1838 30.2564C46.9261 27.6489 47.8561 24.5833 47.8561 21.4473C47.8561 17.242 46.1855 13.209 43.2119 10.2354C40.2384 7.26185 36.2053 5.59131 32.0001 5.59131Z" fill="#58DBF9"/>
<path d="M21.3599 10.1836L41.3839 31.8716L21.3599 10.1836Z" fill="#231F20"/>
<path d="M21.3599 10.1836L41.3839 31.8716" stroke="#58DBF9" stroke-width="4.592" stroke-miterlimit="10"/>
</g>
<defs>
<clipPath id="clip0_182_228">
<rect width="64" height="64" fill="white" transform="translate(0 0.359375)"/>
</clipPath>
</defs>
</svg>
