<svg width="278" height="55" viewBox="0 0 278 55" fill="none" xmlns="http://www.w3.org/2000/svg">
<path d="M7.36274 36.9303V26.0975L12.3569 28.7948V34.5025L22.4067 40.0942V28.9116L20.1626 27.6865L20.1643 27.6646L1.95062 17.7743L0 16.6901V41.7213L22.4997 54.2373V45.3517L7.36274 36.9303ZM42.6389 20.7855V36.9303L32.6214 42.5041V37.1476L37.6455 34.3522V23.4251L27.5957 28.7613V45.2995L27.5019 45.3517V54.2373L50 41.7213V16.6901L42.6389 20.7855ZM40.7634 16.2625L47.4989 12.5152L25.0008 0L2.50194 12.5152L9.23899 16.2625L25.0008 7.49449L35.7547 13.4764L30.0459 16.5857L25.0008 13.7778L14.951 19.3695L15.5516 19.7013L25.0008 24.958L33.045 20.4841L40.744 16.2523L40.7634 16.2625Z" fill="#1B75BB"/>
<path d="M69.2955 38.0001V14.7274H78.2045C79.8864 14.7274 81.2841 14.9925 82.3977 15.5228C83.5189 16.0456 84.3561 16.7615 84.9091 17.6706C85.4697 18.5796 85.75 19.6099 85.75 20.7615C85.75 21.7084 85.5682 22.519 85.2045 23.1933C84.8409 23.8599 84.3523 24.4016 83.7386 24.8183C83.125 25.2349 82.4394 25.5342 81.6818 25.716V25.9433C82.5076 25.9887 83.2992 26.2425 84.0568 26.7046C84.822 27.1592 85.447 27.8031 85.9318 28.6365C86.4167 29.4698 86.6591 30.4774 86.6591 31.6592C86.6591 32.8637 86.3674 33.9471 85.7841 34.9092C85.2008 35.8637 84.322 36.6175 83.1477 37.1706C81.9735 37.7236 80.4962 38.0001 78.7159 38.0001H69.2955ZM73.5114 34.4774H78.0455C79.5758 34.4774 80.678 34.1857 81.3523 33.6024C82.0341 33.0115 82.375 32.2539 82.375 31.3296C82.375 30.6403 82.2045 30.019 81.8636 29.466C81.5227 28.9054 81.0379 28.466 80.4091 28.1478C79.7803 27.8221 79.0303 27.6592 78.1591 27.6592H73.5114V34.4774ZM73.5114 24.6251H77.6818C78.4091 24.6251 79.0644 24.4925 79.6477 24.2274C80.2311 23.9546 80.6894 23.5721 81.0227 23.0796C81.3636 22.5796 81.5341 21.9887 81.5341 21.3069C81.5341 20.4054 81.2159 19.663 80.5795 19.0796C79.9508 18.4963 79.0152 18.2046 77.7727 18.2046H73.5114V24.6251ZM90.3267 38.0001V14.7274H94.5426V34.466H104.793V38.0001H90.3267ZM128.341 26.3637C128.341 28.8713 127.871 31.019 126.932 32.8069C126 34.5872 124.727 35.9509 123.114 36.8978C121.508 37.8448 119.686 38.3183 117.648 38.3183C115.61 38.3183 113.784 37.8448 112.17 36.8978C110.564 35.9433 109.292 34.5759 108.352 32.7956C107.42 31.0077 106.955 28.8637 106.955 26.3637C106.955 23.8562 107.42 21.7122 108.352 19.9319C109.292 18.144 110.564 16.7766 112.17 15.8296C113.784 14.8827 115.61 14.4092 117.648 14.4092C119.686 14.4092 121.508 14.8827 123.114 15.8296C124.727 16.7766 126 18.144 126.932 19.9319C127.871 21.7122 128.341 23.8562 128.341 26.3637ZM124.102 26.3637C124.102 24.5986 123.826 23.1099 123.273 21.8978C122.727 20.6781 121.97 19.7577 121 19.1365C120.03 18.5077 118.913 18.1933 117.648 18.1933C116.383 18.1933 115.265 18.5077 114.295 19.1365C113.326 19.7577 112.564 20.6781 112.011 21.8978C111.466 23.1099 111.193 24.5986 111.193 26.3637C111.193 28.1289 111.466 29.6213 112.011 30.841C112.564 32.0531 113.326 32.9736 114.295 33.6024C115.265 34.2236 116.383 34.5342 117.648 34.5342C118.913 34.5342 120.03 34.2236 121 33.6024C121.97 32.9736 122.727 32.0531 123.273 30.841C123.826 29.6213 124.102 28.1289 124.102 26.3637ZM152.247 22.5796H147.997C147.876 21.8827 147.652 21.2653 147.327 20.7274C147.001 20.1819 146.596 19.7198 146.111 19.341C145.626 18.9622 145.073 18.6781 144.452 18.4887C143.838 18.2918 143.175 18.1933 142.463 18.1933C141.198 18.1933 140.077 18.5115 139.099 19.1478C138.122 19.7766 137.357 20.7009 136.804 21.9206C136.251 23.1327 135.974 24.6137 135.974 26.3637C135.974 28.144 136.251 29.644 136.804 30.8637C137.365 32.0759 138.13 32.9925 139.099 33.6137C140.077 34.2274 141.194 34.5342 142.452 34.5342C143.149 34.5342 143.8 34.4433 144.406 34.2615C145.02 34.0721 145.569 33.7956 146.054 33.4319C146.546 33.0683 146.959 32.6213 147.293 32.091C147.634 31.5607 147.868 30.9546 147.997 30.2728L152.247 30.2956C152.088 31.4016 151.743 32.4395 151.213 33.4092C150.69 34.3789 150.005 35.2349 149.156 35.9774C148.308 36.7122 147.315 37.288 146.179 37.7046C145.043 38.1137 143.781 38.3183 142.395 38.3183C140.349 38.3183 138.524 37.8448 136.918 36.8978C135.312 35.9509 134.046 34.5834 133.122 32.7956C132.198 31.0077 131.736 28.8637 131.736 26.3637C131.736 23.8562 132.202 21.7122 133.134 19.9319C134.065 18.144 135.334 16.7766 136.94 15.8296C138.546 14.8827 140.365 14.4092 142.395 14.4092C143.69 14.4092 144.895 14.591 146.009 14.9546C147.122 15.3183 148.115 15.8524 148.986 16.5569C149.857 17.2539 150.573 18.1099 151.134 19.1251C151.702 20.1327 152.073 21.2842 152.247 22.5796ZM156.108 38.0001V14.7274H160.324V25.4206H160.608L169.688 14.7274H174.835L165.835 25.1706L174.915 38.0001H169.847L162.903 28.0228L160.324 31.0683V38.0001H156.108ZM190.287 21.1251C190.181 20.1327 189.734 19.3599 188.946 18.8069C188.166 18.2539 187.151 17.9774 185.901 17.9774C185.022 17.9774 184.268 18.1099 183.639 18.3751C183.01 18.6403 182.529 19.0001 182.196 19.4546C181.863 19.9092 181.692 20.4281 181.685 21.0115C181.685 21.4963 181.795 21.9168 182.014 22.2728C182.241 22.6289 182.548 22.9319 182.935 23.1819C183.321 23.4243 183.749 23.6289 184.219 23.7956C184.688 23.9622 185.162 24.1024 185.639 24.216L187.821 24.7615C188.7 24.966 189.545 25.2425 190.355 25.591C191.173 25.9395 191.904 26.3789 192.548 26.9092C193.2 27.4395 193.715 28.0796 194.094 28.8296C194.473 29.5796 194.662 30.4584 194.662 31.466C194.662 32.8296 194.313 34.0304 193.616 35.0683C192.92 36.0986 191.912 36.9054 190.594 37.4887C189.283 38.0645 187.696 38.3524 185.832 38.3524C184.022 38.3524 182.45 38.0721 181.116 37.5115C179.791 36.9509 178.753 36.1327 178.003 35.0569C177.26 33.9812 176.859 32.6706 176.798 31.1251H180.946C181.007 31.9357 181.257 32.6099 181.696 33.1478C182.135 33.6857 182.707 34.0872 183.412 34.3524C184.124 34.6175 184.92 34.7501 185.798 34.7501C186.715 34.7501 187.518 34.6137 188.207 34.341C188.904 34.0607 189.45 33.6743 189.844 33.1819C190.238 32.6819 190.438 32.0986 190.446 31.4319C190.438 30.8259 190.26 30.3259 189.912 29.9319C189.563 29.5304 189.075 29.1971 188.446 28.9319C187.825 28.6592 187.098 28.4168 186.264 28.2046L183.616 27.5228C181.7 27.0304 180.185 26.2842 179.071 25.2842C177.965 24.2766 177.412 22.9395 177.412 21.2728C177.412 19.9016 177.783 18.7009 178.526 17.6706C179.276 16.6403 180.295 15.841 181.582 15.2728C182.87 14.6971 184.329 14.4092 185.957 14.4092C187.609 14.4092 189.056 14.6971 190.298 15.2728C191.548 15.841 192.529 16.6327 193.241 17.6478C193.954 18.6554 194.321 19.8145 194.344 21.1251H190.287ZM198.42 38.0001V14.7274H213.557V18.2615H202.636V24.5796H212.773V28.1137H202.636V34.466H213.648V38.0001H198.42ZM236.983 14.7274V38.0001H233.233L222.267 22.1478H222.074V38.0001H217.858V14.7274H221.631L232.585 30.591H232.79V14.7274H236.983ZM249.463 38.0001H241.577V14.7274H249.622C251.933 14.7274 253.918 15.1933 255.577 16.1251C257.243 17.0493 258.524 18.3789 259.418 20.1137C260.312 21.8486 260.759 23.9243 260.759 26.341C260.759 28.7653 260.308 30.8486 259.406 32.591C258.512 34.3334 257.221 35.6706 255.531 36.6024C253.849 37.5342 251.827 38.0001 249.463 38.0001ZM245.793 34.3524H249.259C250.88 34.3524 252.232 34.0569 253.315 33.466C254.399 32.8675 255.213 31.9774 255.759 30.7956C256.304 29.6062 256.577 28.1213 256.577 26.341C256.577 24.5607 256.304 23.0834 255.759 21.9092C255.213 20.7274 254.406 19.8448 253.338 19.2615C252.277 18.6706 250.959 18.3751 249.384 18.3751H245.793V34.3524Z" fill="#1B75BB"/>
</svg>
