<svg width="278" height="55" viewBox="0 0 278 55" fill="none" xmlns="http://www.w3.org/2000/svg">
<path d="M7.36274 36.9303V26.0975L12.3569 28.7948V34.5025L22.4067 40.0942V28.9116L20.1626 27.6865L20.1643 27.6646L1.95062 17.7743L0 16.6901V41.7213L22.4997 54.2373V45.3517L7.36274 36.9303ZM42.6389 20.7855V36.9303L32.6214 42.5041V37.1476L37.6455 34.3522V23.4251L27.5957 28.7613V45.2995L27.5019 45.3517V54.2373L50 41.7213V16.6901L42.6389 20.7855ZM40.7634 16.2625L47.4989 12.5152L25.0008 0L2.50194 12.5152L9.23899 16.2625L25.0008 7.49449L35.7547 13.4764L30.0459 16.5857L25.0008 13.7778L14.951 19.3695L15.5516 19.7013L25.0008 24.958L33.045 20.4841L40.744 16.2523L40.7634 16.2625Z" fill="white"/>
<path d="M69.2955 38V14.7273H78.2045C79.8864 14.7273 81.2841 14.9924 82.3977 15.5227C83.5189 16.0455 84.3561 16.7614 84.9091 17.6705C85.4697 18.5795 85.75 19.6098 85.75 20.7614C85.75 21.7083 85.5682 22.5189 85.2045 23.1932C84.8409 23.8598 84.3523 24.4015 83.7386 24.8182C83.125 25.2348 82.4394 25.5341 81.6818 25.7159V25.9432C82.5076 25.9886 83.2992 26.2424 84.0568 26.7045C84.822 27.1591 85.447 27.803 85.9318 28.6364C86.4167 29.4697 86.6591 30.4773 86.6591 31.6591C86.6591 32.8636 86.3674 33.947 85.7841 34.9091C85.2008 35.8636 84.322 36.6174 83.1477 37.1705C81.9735 37.7235 80.4962 38 78.7159 38H69.2955ZM73.5114 34.4773H78.0455C79.5758 34.4773 80.678 34.1856 81.3523 33.6023C82.0341 33.0114 82.375 32.2538 82.375 31.3295C82.375 30.6402 82.2045 30.0189 81.8636 29.4659C81.5227 28.9053 81.0379 28.4659 80.4091 28.1477C79.7803 27.822 79.0303 27.6591 78.1591 27.6591H73.5114V34.4773ZM73.5114 24.625H77.6818C78.4091 24.625 79.0644 24.4924 79.6477 24.2273C80.2311 23.9545 80.6894 23.572 81.0227 23.0795C81.3636 22.5795 81.5341 21.9886 81.5341 21.3068C81.5341 20.4053 81.2159 19.6629 80.5795 19.0795C79.9508 18.4962 79.0152 18.2045 77.7727 18.2045H73.5114V24.625ZM90.3267 38V14.7273H94.5426V34.4659H104.793V38H90.3267ZM128.341 26.3636C128.341 28.8712 127.871 31.0189 126.932 32.8068C126 34.5871 124.727 35.9508 123.114 36.8977C121.508 37.8447 119.686 38.3182 117.648 38.3182C115.61 38.3182 113.784 37.8447 112.17 36.8977C110.564 35.9432 109.292 34.5758 108.352 32.7955C107.42 31.0076 106.955 28.8636 106.955 26.3636C106.955 23.8561 107.42 21.7121 108.352 19.9318C109.292 18.1439 110.564 16.7765 112.17 15.8295C113.784 14.8826 115.61 14.4091 117.648 14.4091C119.686 14.4091 121.508 14.8826 123.114 15.8295C124.727 16.7765 126 18.1439 126.932 19.9318C127.871 21.7121 128.341 23.8561 128.341 26.3636ZM124.102 26.3636C124.102 24.5985 123.826 23.1098 123.273 21.8977C122.727 20.678 121.97 19.7576 121 19.1364C120.03 18.5076 118.913 18.1932 117.648 18.1932C116.383 18.1932 115.265 18.5076 114.295 19.1364C113.326 19.7576 112.564 20.678 112.011 21.8977C111.466 23.1098 111.193 24.5985 111.193 26.3636C111.193 28.1288 111.466 29.6212 112.011 30.8409C112.564 32.053 113.326 32.9735 114.295 33.6023C115.265 34.2235 116.383 34.5341 117.648 34.5341C118.913 34.5341 120.03 34.2235 121 33.6023C121.97 32.9735 122.727 32.053 123.273 30.8409C123.826 29.6212 124.102 28.1288 124.102 26.3636ZM152.247 22.5795H147.997C147.876 21.8826 147.652 21.2652 147.327 20.7273C147.001 20.1818 146.596 19.7197 146.111 19.3409C145.626 18.9621 145.073 18.678 144.452 18.4886C143.838 18.2917 143.175 18.1932 142.463 18.1932C141.198 18.1932 140.077 18.5114 139.099 19.1477C138.122 19.7765 137.357 20.7008 136.804 21.9205C136.251 23.1326 135.974 24.6136 135.974 26.3636C135.974 28.1439 136.251 29.6439 136.804 30.8636C137.365 32.0758 138.13 32.9924 139.099 33.6136C140.077 34.2273 141.194 34.5341 142.452 34.5341C143.149 34.5341 143.8 34.4432 144.406 34.2614C145.02 34.072 145.569 33.7955 146.054 33.4318C146.546 33.0682 146.959 32.6212 147.293 32.0909C147.634 31.5606 147.868 30.9545 147.997 30.2727L152.247 30.2955C152.088 31.4015 151.743 32.4394 151.213 33.4091C150.69 34.3788 150.005 35.2348 149.156 35.9773C148.308 36.7121 147.315 37.2879 146.179 37.7045C145.043 38.1136 143.781 38.3182 142.395 38.3182C140.349 38.3182 138.524 37.8447 136.918 36.8977C135.312 35.9508 134.046 34.5833 133.122 32.7955C132.198 31.0076 131.736 28.8636 131.736 26.3636C131.736 23.8561 132.202 21.7121 133.134 19.9318C134.065 18.1439 135.334 16.7765 136.94 15.8295C138.546 14.8826 140.365 14.4091 142.395 14.4091C143.69 14.4091 144.895 14.5909 146.009 14.9545C147.122 15.3182 148.115 15.8523 148.986 16.5568C149.857 17.2538 150.573 18.1098 151.134 19.125C151.702 20.1326 152.073 21.2841 152.247 22.5795ZM156.108 38V14.7273H160.324V25.4205H160.608L169.688 14.7273H174.835L165.835 25.1705L174.915 38H169.847L162.903 28.0227L160.324 31.0682V38H156.108ZM190.287 21.125C190.181 20.1326 189.734 19.3598 188.946 18.8068C188.166 18.2538 187.151 17.9773 185.901 17.9773C185.022 17.9773 184.268 18.1098 183.639 18.375C183.01 18.6402 182.529 19 182.196 19.4545C181.863 19.9091 181.692 20.428 181.685 21.0114C181.685 21.4962 181.795 21.9167 182.014 22.2727C182.241 22.6288 182.548 22.9318 182.935 23.1818C183.321 23.4242 183.749 23.6288 184.219 23.7955C184.688 23.9621 185.162 24.1023 185.639 24.2159L187.821 24.7614C188.7 24.9659 189.545 25.2424 190.355 25.5909C191.173 25.9394 191.904 26.3788 192.548 26.9091C193.2 27.4394 193.715 28.0795 194.094 28.8295C194.473 29.5795 194.662 30.4583 194.662 31.4659C194.662 32.8295 194.313 34.0303 193.616 35.0682C192.92 36.0985 191.912 36.9053 190.594 37.4886C189.283 38.0644 187.696 38.3523 185.832 38.3523C184.022 38.3523 182.45 38.072 181.116 37.5114C179.791 36.9508 178.753 36.1326 178.003 35.0568C177.26 33.9811 176.859 32.6705 176.798 31.125H180.946C181.007 31.9356 181.257 32.6098 181.696 33.1477C182.135 33.6856 182.707 34.0871 183.412 34.3523C184.124 34.6174 184.92 34.75 185.798 34.75C186.715 34.75 187.518 34.6136 188.207 34.3409C188.904 34.0606 189.45 33.6742 189.844 33.1818C190.238 32.6818 190.438 32.0985 190.446 31.4318C190.438 30.8258 190.26 30.3258 189.912 29.9318C189.563 29.5303 189.075 29.197 188.446 28.9318C187.825 28.6591 187.098 28.4167 186.264 28.2045L183.616 27.5227C181.7 27.0303 180.185 26.2841 179.071 25.2841C177.965 24.2765 177.412 22.9394 177.412 21.2727C177.412 19.9015 177.783 18.7008 178.526 17.6705C179.276 16.6402 180.295 15.8409 181.582 15.2727C182.87 14.697 184.329 14.4091 185.957 14.4091C187.609 14.4091 189.056 14.697 190.298 15.2727C191.548 15.8409 192.529 16.6326 193.241 17.6477C193.954 18.6553 194.321 19.8144 194.344 21.125H190.287ZM198.42 38V14.7273H213.557V18.2614H202.636V24.5795H212.773V28.1136H202.636V34.4659H213.648V38H198.42ZM236.983 14.7273V38H233.233L222.267 22.1477H222.074V38H217.858V14.7273H221.631L232.585 30.5909H232.79V14.7273H236.983ZM249.463 38H241.577V14.7273H249.622C251.933 14.7273 253.918 15.1932 255.577 16.125C257.243 17.0492 258.524 18.3788 259.418 20.1136C260.312 21.8485 260.759 23.9242 260.759 26.3409C260.759 28.7652 260.308 30.8485 259.406 32.5909C258.512 34.3333 257.221 35.6705 255.531 36.6023C253.849 37.5341 251.827 38 249.463 38ZM245.793 34.3523H249.259C250.88 34.3523 252.232 34.0568 253.315 33.4659C254.399 32.8674 255.213 31.9773 255.759 30.7955C256.304 29.6061 256.577 28.1212 256.577 26.3409C256.577 24.5606 256.304 23.0833 255.759 21.9091C255.213 20.7273 254.406 19.8447 253.338 19.2614C252.277 18.6705 250.959 18.375 249.384 18.375H245.793V34.3523Z" fill="white"/>
</svg>
