<svg width="64" height="65" viewBox="0 0 64 65" fill="none" xmlns="http://www.w3.org/2000/svg">
<g clip-path="url(#clip0_182_212)">
<path d="M5.26562 58.7158H46.8365V59.9085H5.26562V58.7158Z" fill="url(#paint0_linear_182_212)"/>
<path d="M9.52725 14.1631H42.5454C42.8232 14.1631 43.0896 14.2734 43.286 14.4698C43.4824 14.6662 43.5927 14.9326 43.5927 15.2104V58.5413C43.5927 58.8204 43.4829 59.0883 43.2869 59.287C43.0909 59.4857 42.8245 59.5993 42.5454 59.6031H9.52725C9.24817 59.5993 8.98181 59.4857 8.78582 59.287C8.58983 59.0883 8.47995 58.8204 8.47998 58.5413V15.2104C8.47998 14.9326 8.59032 14.6662 8.78672 14.4698C8.98312 14.2734 9.2495 14.1631 9.52725 14.1631Z" fill="#A7E2F9"/>
<path fill-rule="evenodd" clip-rule="evenodd" d="M37.3673 51.8649H14.0073L14.7201 50.2504H37.9782L37.3673 51.8649ZM37.3673 46.4249H14.0073L14.7201 44.9122H37.9782L37.3673 46.4249ZM37.3673 41.0722H14.0073L14.7201 39.5595H37.9782L37.3673 41.0722ZM37.3673 35.734H14.0073L14.7201 34.1195H37.9782L37.3673 35.734ZM37.3673 30.294H14.0073L14.7201 28.7813H37.9782L37.3673 30.294ZM25.8619 24.9413H14.0073L14.7201 23.3413H26.5746L25.8619 24.9413Z" fill="#77D9F7"/>
<path d="M54.8946 20.9996H51.9855V13.8723C51.9855 12.2405 51.3373 10.6755 50.1834 9.52165C49.0296 8.36779 47.4646 7.71956 45.8328 7.71956C44.201 7.71956 42.636 8.36779 41.4822 9.52165C40.3283 10.6755 39.6801 12.2405 39.6801 13.8723V20.9996H36.771V13.8723C36.771 11.4844 37.7196 9.19427 39.4081 7.50576C41.0966 5.81725 43.3867 4.86865 45.7746 4.86865C48.1625 4.86865 50.4527 5.81725 52.1412 7.50576C53.8297 9.19427 54.7783 11.4844 54.7783 13.8723L54.8946 20.9996Z" fill="#3C549E"/>
<path d="M34.6474 20.9995H57.2365C57.513 21.0033 57.7772 21.1148 57.9728 21.3104C58.1684 21.506 58.28 21.7702 58.2837 22.0468V41.785C58.2837 42.0627 58.1734 42.3291 57.977 42.5255C57.7806 42.7219 57.5142 42.8322 57.2365 42.8322H34.6474C34.3696 42.8322 34.1032 42.7219 33.9068 42.5255C33.7104 42.3291 33.6001 42.0627 33.6001 41.785V22.0468C33.6001 21.769 33.7104 21.5027 33.9068 21.3063C34.1032 21.1098 34.3696 20.9995 34.6474 20.9995Z" fill="#485CC7"/>
<path d="M48.1164 29.6542C48.1164 29.3619 48.0589 29.0725 47.947 28.8025C47.8352 28.5325 47.6713 28.2872 47.4646 28.0805C47.258 27.8739 47.0126 27.71 46.7426 27.5981C46.4726 27.4863 46.1832 27.4287 45.891 27.4287C45.5987 27.4287 45.3093 27.4863 45.0393 27.5981C44.7693 27.71 44.524 27.8739 44.3173 28.0805C44.1107 28.2872 43.9468 28.5325 43.8349 28.8025C43.7231 29.0725 43.6655 29.3619 43.6655 29.6542C43.6735 29.9971 43.7572 30.3339 43.9106 30.6407C44.064 30.9475 44.2833 31.2166 44.5528 31.4287V35.5305H47.4619V31.4287C47.6841 31.1917 47.8565 30.9126 47.969 30.6078C48.0814 30.303 48.1315 29.9787 48.1164 29.6542Z" fill="white"/>
</g>
<defs>
<linearGradient id="paint0_linear_182_212" x1="5.26562" y1="59.3122" x2="46.822" y2="59.3122" gradientUnits="userSpaceOnUse">
<stop stop-opacity="0"/>
<stop offset="0.07" stop-opacity="0.16"/>
<stop offset="0.5" stop-opacity="0.3"/>
<stop offset="0.93" stop-opacity="0.16"/>
<stop offset="1" stop-opacity="0"/>
</linearGradient>
<clipPath id="clip0_182_212">
<rect width="64" height="64" fill="white" transform="translate(0 0.359375)"/>
</clipPath>
</defs>
</svg>
