<svg width="64" height="64" viewBox="0 0 64 64" fill="none" xmlns="http://www.w3.org/2000/svg">
<g clip-path="url(#clip0_182_163)">
<path d="M3.35986 58.6475H45.629V59.8693H3.35986V58.6475Z" fill="url(#paint0_linear_182_163)"/>
<path d="M7.70918 13.3238H41.2801C41.4207 13.3219 41.5604 13.3479 41.6909 13.4004C41.8214 13.4529 41.9402 13.5308 42.0403 13.6296C42.1405 13.7284 42.22 13.8461 42.2743 13.9759C42.3285 14.1057 42.3565 14.245 42.3564 14.3856V58.4875C42.3526 58.7704 42.2375 59.0405 42.0361 59.2392C41.8346 59.4379 41.563 59.5493 41.2801 59.5493H7.70918C7.42621 59.5493 7.15461 59.4379 6.95317 59.2392C6.75172 59.0405 6.63664 58.7704 6.63281 58.4875V14.3856C6.6328 14.245 6.66074 14.1057 6.71501 13.9759C6.76928 13.8461 6.84879 13.7284 6.94894 13.6296C7.04908 13.5308 7.16786 13.4529 7.29837 13.4004C7.42888 13.3479 7.56852 13.3219 7.70918 13.3238Z" fill="#A7E2F9"/>
<path fill-rule="evenodd" clip-rule="evenodd" d="M36.0144 51.6656H12.2617L12.989 50.0366H36.6399L36.0144 51.6656ZM36.0144 46.1238H12.2617L12.989 44.5966H36.6399L36.0144 46.1238ZM36.0144 40.6984H12.2617L12.989 39.1566H36.6399L36.0144 40.6984ZM36.0144 35.2584H12.2617L12.989 33.6147H36.6399L36.0144 35.2584ZM36.0144 29.7311H12.2617L12.989 28.1893H36.6399L36.0144 29.7311ZM24.3199 24.2911H12.2617L12.989 22.6475H25.0326L24.3199 24.2911Z" fill="#77D9F7"/>
<path d="M44.269 30.6943L46.8804 28.795L59.1408 45.6514L56.5295 47.5508L44.269 30.6943Z" fill="#3C549E"/>
<path d="M59.6361 48.684C60.1631 48.2871 60.5143 47.7 60.6148 47.0479C60.7153 46.3959 60.5572 45.7303 60.1742 45.1931L51.7233 33.7749L47.6797 36.684L56.1306 48.0876C56.5215 48.6249 57.107 48.9879 57.7619 49.0994C58.4169 49.2108 59.0895 49.0617 59.6361 48.684Z" fill="#3C549E"/>
<path d="M43.8804 31.4043L47.8864 28.5044L48.944 29.9654L44.938 32.8653L43.8804 31.4043Z" fill="#3C549E"/>
<path opacity="0.7" d="M37.4399 29.9057C43.8424 29.9057 49.0326 24.7154 49.0326 18.3129C49.0326 11.9105 43.8424 6.72021 37.4399 6.72021C31.0374 6.72021 25.8472 11.9105 25.8472 18.3129C25.8472 24.7154 31.0374 29.9057 37.4399 29.9057Z" fill="white"/>
<path d="M25.7451 26.0509C27.2655 28.3526 29.4343 30.1519 31.9772 31.2212C34.5201 32.2905 37.323 32.5818 40.0315 32.0583C42.7399 31.5347 45.2323 30.2199 47.1936 28.28C49.1549 26.34 50.4969 23.8622 51.05 21.1596C51.6031 18.457 51.3425 15.6511 50.3011 13.0967C49.2597 10.5422 47.4842 8.35387 45.1992 6.80835C42.9142 5.26284 40.2223 4.42954 37.4637 4.4138C34.7052 4.39807 32.0039 5.20061 29.7014 6.71996C28.169 7.72656 26.8506 9.02598 25.8218 10.5436C24.793 12.0612 24.0741 13.7671 23.7065 15.5633C23.3389 17.3595 23.3297 19.2107 23.6796 21.0105C24.0294 22.8102 24.7314 24.5232 25.7451 26.0509ZM28.3633 24.3345C27.2028 22.5395 26.5992 20.4415 26.6281 18.3043C26.6571 16.1671 27.3175 14.0862 28.5262 12.3234C29.7348 10.5606 31.4378 9.19457 33.4209 8.3972C35.404 7.59984 37.5786 7.40673 39.6712 7.84218C41.7637 8.27762 43.6808 9.32217 45.1812 10.8444C46.6816 12.3667 47.6983 14.2986 48.1034 16.3973C48.5086 18.4959 48.284 20.6675 47.458 22.6389C46.6321 24.6102 45.2416 26.2933 43.4614 27.4763C41.0326 29.0265 38.0938 29.5657 35.2728 28.9786C32.4518 28.3916 29.9721 26.7249 28.3633 24.3345Z" fill="white"/>
<path d="M24.9455 26.5893C27.2111 29.6737 30.5752 31.7699 34.3424 32.4446C38.1096 33.1192 41.9921 32.3208 45.1873 30.2143C48.3826 28.1077 50.6464 24.8542 51.511 21.1259C52.3756 17.3977 51.7748 13.4798 49.8328 10.182C48.7625 8.53647 47.3757 7.12018 45.753 6.0155C44.1304 4.91082 42.3043 4.1398 40.381 3.74729C38.4577 3.35477 36.4755 3.3486 34.5498 3.72912C32.624 4.10964 30.7932 4.86926 29.1637 5.9638C25.8773 8.15675 23.5902 11.559 22.8002 15.4301C22.0102 19.3012 22.7812 23.3276 24.9455 26.6329V26.5893ZM27.7237 24.7274C26.4559 22.8046 25.7872 20.5489 25.8023 18.2458C25.8174 15.9427 26.5156 13.6959 27.8084 11.7899C29.1013 9.8839 30.9307 8.40442 33.065 7.53881C35.1993 6.6732 37.5424 6.4604 39.7977 6.92737C42.053 7.39433 44.119 8.52005 45.7341 10.162C47.3492 11.8039 48.4407 13.8882 48.8704 16.1508C49.3001 18.4135 49.0488 20.7528 48.1481 22.8726C47.2474 24.9923 45.738 26.7971 43.811 28.0583C41.2344 29.7447 38.0945 30.3411 35.0791 29.7167C32.0637 29.0924 29.4187 27.2983 27.7237 24.7274Z" fill="#485CC7"/>
</g>
<defs>
<linearGradient id="paint0_linear_182_163" x1="3.35986" y1="59.2438" x2="45.629" y2="59.2438" gradientUnits="userSpaceOnUse">
<stop stop-opacity="0"/>
<stop offset="0.07" stop-opacity="0.16"/>
<stop offset="0.5" stop-opacity="0.3"/>
<stop offset="0.93" stop-opacity="0.16"/>
<stop offset="1" stop-opacity="0"/>
</linearGradient>
<clipPath id="clip0_182_163">
<rect width="64" height="64" fill="white"/>
</clipPath>
</defs>
</svg>
