<svg width="64" height="65" viewBox="0 0 64 65" fill="none" xmlns="http://www.w3.org/2000/svg">
<g clip-path="url(#clip0_182_194)">
<path d="M9.77441 60.812H50.0071V61.9757H9.77441V60.812Z" fill="url(#paint0_linear_182_194)"/>
<path d="M16.3778 2.51372H43.0542C43.3744 2.5118 43.6918 2.57321 43.9882 2.69443C44.2846 2.81564 44.5541 2.99426 44.7812 3.22002C45.0083 3.44577 45.1886 3.7142 45.3115 4.00986C45.4345 4.30552 45.4978 4.62259 45.4978 4.94281V58.761C45.4646 59.3888 45.1934 59.9805 44.7394 60.4155C44.2855 60.8505 43.6829 61.0963 43.0542 61.1028H16.7269C16.0827 61.1028 15.4648 60.8469 15.0093 60.3913C14.5537 59.9358 14.2978 59.318 14.2978 58.6737V4.68099C14.292 4.40209 14.3412 4.12479 14.4427 3.86492C14.5441 3.60505 14.6957 3.3677 14.8888 3.16644C15.082 2.96518 15.3129 2.80394 15.5684 2.69195C15.8239 2.57995 16.0989 2.51939 16.3778 2.51372Z" fill="#77D9F7"/>
<path opacity="0.32" d="M44.887 58.4704V4.76858C44.8866 4.2297 44.706 3.70642 44.3739 3.28205C44.0418 2.85768 43.5773 2.55661 43.0543 2.42676H40.1452L15.4761 60.8995H42.4433C42.7657 60.9095 43.0867 60.8536 43.3868 60.7352C43.6868 60.6169 43.9595 60.4386 44.1883 60.2112C44.417 59.9838 44.597 59.7122 44.7171 59.4128C44.8372 59.1135 44.8951 58.7928 44.887 58.4704Z" fill="white"/>
<path d="M42.5307 3.0811C42.8407 3.07917 43.148 3.1388 43.4347 3.25654C43.7215 3.37427 43.982 3.54777 44.2012 3.76696C44.4204 3.98615 44.5939 4.24669 44.7117 4.53344C44.8294 4.8202 44.889 5.12748 44.8871 5.43747V58.092C44.889 58.4013 44.8293 58.7079 44.7114 58.9939C44.5935 59.2798 44.4198 59.5394 44.2004 59.7575C43.981 59.9755 43.7203 60.1476 43.4337 60.2638C43.147 60.3799 42.84 60.4377 42.5307 60.4338H17.2507C16.9427 60.4358 16.6373 60.3765 16.3523 60.2595C16.0673 60.1425 15.8083 59.9701 15.5905 59.7522C15.3727 59.5344 15.2002 59.2755 15.0832 58.9905C14.9662 58.7055 14.907 58.4001 14.9089 58.092V5.20474C14.905 4.64786 15.1215 4.11205 15.5112 3.7142C15.9009 3.31636 16.4321 3.08877 16.9889 3.0811H42.5307ZM42.5307 2.04838H16.9889C16.5752 2.0464 16.1653 2.12691 15.7831 2.2852C15.4009 2.44348 15.054 2.67637 14.7629 2.97025C14.4717 3.26413 14.242 3.6131 14.0873 3.99676C13.9325 4.38042 13.8558 4.79109 13.8616 5.20474V58.1211C13.8616 59.02 14.2187 59.882 14.8543 60.5176C15.4899 61.1531 16.3519 61.5102 17.2507 61.5102H42.5307C43.4296 61.5102 44.2916 61.1531 44.9272 60.5176C45.5627 59.882 45.9198 59.02 45.9198 58.1211V5.46656C45.9198 4.56771 45.5627 3.70569 44.9272 3.07011C44.2916 2.43453 43.4296 2.07747 42.5307 2.07747V2.04838Z" fill="#3C549E"/>
<path d="M23.0254 2.76123H36.7563V3.89578C36.7563 4.28155 36.6031 4.65151 36.3303 4.92429C36.0575 5.19707 35.6875 5.35032 35.3018 5.35032H24.509C24.129 5.33262 23.7692 5.17369 23.5002 4.90465C23.2311 4.63561 23.0722 4.27584 23.0545 3.89578V2.76123H23.0254Z" fill="#3C549E"/>
<path d="M54.1235 11.6048C42.4871 11.0375 40.4798 6.61572 40.378 6.61572C40.2762 6.61572 38.2108 10.9794 26.6471 11.6048C26.4751 15.0667 26.5335 18.5361 26.8217 21.9903C27.3017 28.6812 30.5017 36.6812 40.4798 39.6921C50.2689 36.6812 53.4689 28.6812 53.9344 21.9903C54.2346 18.5368 54.2978 15.0669 54.1235 11.6048Z" fill="#485CC7"/>
<path d="M39.9998 30.7175L33.978 23.6484L36.2471 21.7721L39.6362 25.7284L45.3671 16.6812L47.9126 18.2812L39.9998 30.7175Z" fill="white"/>
</g>
<defs>
<linearGradient id="paint0_linear_182_194" x1="9.77441" y1="61.3938" x2="50.0071" y2="61.3938" gradientUnits="userSpaceOnUse">
<stop stop-opacity="0"/>
<stop offset="0.07" stop-opacity="0.16"/>
<stop offset="0.5" stop-opacity="0.3"/>
<stop offset="0.93" stop-opacity="0.16"/>
<stop offset="1" stop-opacity="0"/>
</linearGradient>
<clipPath id="clip0_182_194">
<rect width="64" height="64" fill="white" transform="translate(0 0.171875)"/>
</clipPath>
</defs>
</svg>
